<svg width="20" height="20" viewBox="0 0 20 20" fill="none" xmlns="http://www.w3.org/2000/svg">
<path d="M10.5497 10L12.886 7.66369C13.038 7.51172 13.038 7.26601 12.886 7.11404C12.734 6.96207 12.4883 6.96207 12.3363 7.11404L9.99996 9.45039L7.66368 7.11404C7.51164 6.96207 7.266 6.96207 7.11403 7.11404C6.96199 7.26601 6.96199 7.51172 7.11403 7.66369L9.45031 10L7.11403 12.3364C6.96199 12.4884 6.96199 12.7341 7.11403 12.886C7.18977 12.9618 7.28935 12.9999 7.38886 12.9999C7.48837 12.9999 7.58788 12.9618 7.66368 12.886L9.99996 10.5497L12.3363 12.886C12.4121 12.9618 12.5116 12.9999 12.6111 12.9999C12.7107 12.9999 12.8102 12.9618 12.886 12.886C13.038 12.7341 13.038 12.4884 12.886 12.3364L10.5497 10Z" fill="black"/>
</svg>
