<svg width="20" height="20" viewBox="0 0 20 20" fill="none" xmlns="http://www.w3.org/2000/svg">
<path d="M11.0994 10.0001L15.7719 5.32739C16.076 5.02345 16.076 4.53202 15.7719 4.22808C15.468 3.92414 14.9766 3.92414 14.6726 4.22808L9.99993 8.90078L5.32737 4.22808C5.02329 3.92414 4.532 3.92414 4.22806 4.22808C3.92398 4.53202 3.92398 5.02345 4.22806 5.32739L8.90062 10.0001L4.22806 14.6728C3.92398 14.9767 3.92398 15.4681 4.22806 15.7721C4.37953 15.9237 4.5787 15.9999 4.77772 15.9999C4.97674 15.9999 5.17576 15.9237 5.32737 15.7721L9.99993 11.0994L14.6726 15.7721C14.8242 15.9237 15.0233 15.9999 15.2223 15.9999C15.4213 15.9999 15.6203 15.9237 15.7719 15.7721C16.076 15.4681 16.076 14.9767 15.7719 14.6728L11.0994 10.0001Z" fill="black"/>
</svg>
