<svg width="20" height="20" viewBox="0 0 20 20" fill="none" xmlns="http://www.w3.org/2000/svg">
<path d="M13.9022 13.431L11.6273 11.156C12.0679 10.6117 12.3333 9.92001 12.3333 9.16669C12.3333 7.4207 10.9126 6.00005 9.16662 6.00005C7.42064 6.00005 6 7.42069 6 9.16667C6 10.9127 7.42066 12.3333 9.16664 12.3333C9.91996 12.3333 10.6116 12.068 11.1559 11.6273L13.4309 13.9023C13.4959 13.9673 13.5812 14 13.6666 14C13.7519 14 13.8373 13.9673 13.9023 13.9023C14.0326 13.772 14.0326 13.5613 13.9022 13.431ZM9.16664 11.6666C7.78798 11.6666 6.66666 10.5453 6.66666 9.16667C6.66666 7.78801 7.78798 6.6667 9.16664 6.6667C10.5453 6.6667 11.6666 7.78801 11.6666 9.16667C11.6666 10.5453 10.5453 11.6666 9.16664 11.6666Z" fill="black"/>
</svg>
